<?xml version="1.0" encoding="UTF-8"?><svg id="Layer_2" xmlns="http://www.w3.org/2000/svg" viewBox="0 0 882.03 808.9"><defs><style>.cls-1{fill:#e54a3e;}</style></defs><g id="Layer_1-2"><path class="cls-1" d="M721.16,480.4c-1.73-2.43-9.25-3.86-12.67-.86,7.13-1.61,12.67.86,12.67.86Z"/><path class="cls-1" d="M681.3,465.36c-3.62-.19-6.77,3.77-7.04,8.85-.27,5.08,2.44,9.35,6.06,9.54s6.77-3.77,7.04-8.85c.27-5.08-2.44-9.35-6.06-9.54Z"/><path class="cls-1" d="M368.49,627.09c-3.64-3.88-7.92-6.85-12.82-8.91-4.91-2.06-10.21-3.09-15.91-3.09s-11.24,1.03-16.15,3.09c-4.91,2.06-9.18,5.03-12.82,8.91-3.64,3.88-6.45,8.39-8.43,13.54-1.98,5.15-2.97,10.89-2.97,17.22s.99,11.87,2.97,17.1c1.98,5.22,4.79,9.78,8.43,13.66,3.64,3.88,7.91,6.85,12.82,8.91,4.91,2.06,10.29,3.09,16.15,3.09s11-1.03,15.91-3.09c4.91-2.06,9.18-5.02,12.82-8.91,3.64-3.88,6.45-8.43,8.43-13.66,1.98-5.22,2.97-10.92,2.97-17.1s-.99-11.87-2.97-17.1c-1.98-5.22-4.79-9.77-8.43-13.66Z"/><path class="cls-1" d="M748.87,488.97c3.62.19,6.77-3.77,7.04-8.85s-2.45-9.35-6.06-9.54c-3.62-.19-6.77,3.77-7.04,8.85-.27,5.08,2.44,9.35,6.06,9.54Z"/><path class="cls-1" d="M417.88,7.37L16.86,291.75c-10.58,7.5-16.86,19.66-16.86,32.63v464.52c0,11.05,8.95,20,20,20h842.03c11.05,0,20-8.95,20-20v-464.52c0-12.97-6.28-25.13-16.86-32.63L464.16,7.37c-13.86-9.83-32.42-9.83-46.28,0ZM281.43,372.6h120.88v38.71h-75.76v24.94h66.26v36.57h-66.26v27.31h79.32v38.71h-124.44v-166.24ZM205.12,742.03h-44.73v-59.18h-51.05v59.18h-44.73v-158.12h44.73v59.63h51.05v-59.63h44.73v158.12ZM218.26,538.83h-42.51l-67.96-92.84c.3,2.79.55,5.41.75,7.82.32,3.8.59,7.44.83,10.92.24,3.48.4,7.21.47,11.16.08,3.96.12,8.47.12,13.54v49.4h-45.36v-166.24h42.03l69.3,94.98c-.11-.88-.21-1.76-.31-2.6-.56-4.75-1.03-9.26-1.43-13.54-.4-4.27-.71-8.55-.95-12.82-.24-4.27-.36-8.94-.36-14.01v-52.01h45.36v166.24ZM421.44,692.4c-4.27,10.53-10.41,19.67-18.41,27.43-8,7.76-17.34,13.77-28.02,18.05-10.69,4.27-22.44,6.41-35.27,6.41s-24.62-2.14-35.38-6.41c-10.77-4.27-20.11-10.29-28.02-18.05-7.92-7.75-14.05-16.9-18.41-27.43-4.36-10.53-6.53-22.05-6.53-34.55s2.17-24.22,6.53-34.67c4.35-10.45,10.49-19.55,18.41-27.31,7.92-7.76,17.25-13.77,28.02-18.05,10.76-4.27,22.56-6.41,35.38-6.41s24.58,2.14,35.27,6.41c10.69,4.27,20.03,10.29,28.02,18.05,7.99,7.76,14.13,16.86,18.41,27.31,4.27,10.45,6.41,21.93,6.41,34.43s-2.14,24.26-6.41,34.79ZM461.68,372.6h47.02v52.93l52.01-52.93h54.14l-70.31,69.47,76.24,96.76h-53.91l-51.65-67.79-6.53,6.45v61.34h-47.02v-166.24ZM636.34,742.03h-43.15v-42.24c0-13.55.34-25.75,1.02-36.59.14-2.21.31-4.42.49-6.62l-32.45,50.22h-14.91l-31.43-49.75c.13,1.64.27,3.27.37,4.91.68,10.62,1.02,23.23,1.02,37.84v42.24h-43.15v-158.12h39.08l42.39,68.99,42.99-68.99h37.72v158.12ZM669,517.94c-7.53-7.38-13.37-16.07-17.51-26.09-4.15-10.01-6.21-20.97-6.21-32.87s2.07-23.04,6.21-32.98c.99-2.37,2.07-4.66,3.25-6.88h-.01s1.63-39.39,12.92-49.42c4.27-3.8,28,13.16,28,13.16,10.24-4.07,21.46-6.1,33.66-6.1s23.38,2.03,33.55,6.1c.07.03.14.06.21.09l-.1-.09s23.74-16.95,28-13.16c11.29,10.04,12.92,49.44,12.92,49.44l-.14-.13c1.19,2.26,2.29,4.59,3.27,6.99,4.07,9.94,6.1,20.86,6.1,32.75s-2.03,23.08-6.1,33.09c-4.07,10.02-9.9,18.71-17.51,26.09-7.61,7.38-16.49,13.1-26.65,17.17-10.16,4.07-21.35,6.1-33.55,6.1s-23.42-2.03-33.66-6.1c-10.24-4.07-19.13-9.79-26.65-17.17ZM814.79,742.03h-118.37v-158.12h114.98v36.82h-72.06v23.72h63.02v34.79h-63.02v25.98h75.45v36.82Z"/><path class="cls-1" d="M714.75,480.5c-2.38-.13-8.65.13-9.54,1.93-1.14,2.32,6.24,6.69,9.07,6.84,2.83.15,10.63-3.41,9.74-5.84-.69-1.88-6.9-2.8-9.28-2.93Z"/></g></svg>